<svg viewBox="0 0 29.9985 29.9985" fill="none" xmlns="http://www.w3.org/2000/svg" id="29b39542" x="0" y="0"><g id="Compress PDF" data-node-id="1:7167"><path id="Vector_33" data-node-id="1:7237" d="M14.9885,0.5c3.85,0.01 7.53,1.54 10.25,4.26c2.72,2.72 4.25,6.4 4.26,10.25c0,2.86 -0.85,5.67 -2.45,8.05c-1.59,2.38 -3.85,4.24 -6.5,5.34c-2.65,1.09 -5.57,1.38 -8.38,0.82c-2.81,-0.56 -5.4,-1.94 -7.42,-3.97c-2.03,-2.02 -3.41,-4.61 -3.97,-7.42c-0.56,-2.81 -0.27,-5.73 0.82,-8.38c1.1,-2.65 2.96,-4.91 5.34,-6.5c2.38,-1.6 5.19,-2.45 8.05,-2.45z" stroke="#D2D2D2"/><path id="Vector_35" data-node-id="1:7239" opacity="0.5" d="M12.2285,21h-0.08c-0.15,-0.01 -0.29,-0.05 -0.42,-0.12c-0.14,-0.06 -0.25,-0.16 -0.34,-0.27l-4.18,-5.19c-0.17,-0.2 -0.24,-0.46 -0.2,-0.72c0.04,-0.25 0.19,-0.48 0.41,-0.64c0.22,-0.15 0.5,-0.22 0.77,-0.18c0.28,0.03 0.53,0.17 0.69,0.38l3.46,4.29l8.9,-8.29c0.2,-0.17 0.46,-0.26 0.73,-0.26c0.27,0 0.53,0.11 0.72,0.28c0.2,0.18 0.31,0.42 0.31,0.68c0,0.25 -0.1,0.49 -0.28,0.68l-9.76,9.07c-0.09,0.1 -0.21,0.17 -0.33,0.22c-0.13,0.05 -0.27,0.07 -0.4,0.07z" fill="black"/></g><defs/></svg>