<svg viewBox="0 0 169.4806 39.6551" fill="none" xmlns="http://www.w3.org/2000/svg" x="0" y="0"><g id="Group">
<path id="Vector" d="M53.184,1.1744c-2.7115,1.2231 -4.7453,3.2843 -6.2305,5.6215c-2.388,-3.7526 -6.1841,-6.7959 -11.9335,-6.7959c-5.7516,0 -12.8032,4.5631 -12.8032,12.2712c0,7.804 6.966,11.5031 10.4164,13.5918c3.6879,2.2307 9.9807,6.2863 14.3197,13.7921c4.3407,-7.5052 10.6324,-11.5614 14.3214,-13.7921c2.5919,-1.5706 7.1709,-4.0508 9.2859,-8.5006zM52.976,17.8053v-14.6651l15.6872,14.6645z" fill="#E5322D"/>
<g id="Group_2">
<path id="Vector_2" d="M0,31.1681h1.9448c0.6165,0 1.3282,-0.7983 1.3282,-1.3301v-19.2891c0,-0.5319 -0.7117,-1.2857 -1.3282,-1.2857h-1.9448v-4.6563h15.606v4.6563h-1.9924c-0.6166,0 -1.2807,0.7538 -1.2807,1.2857v19.2891c0,0.5324 0.6641,1.3301 1.2807,1.3301h1.9924v4.4789h-15.606z" fill="black"/>
<path id="Vector_3" d="M75.3242,31.1681h1.613c0.664,0 1.375,-0.7983 1.375,-1.3301v-19.2891c0,-0.5319 -0.712,-1.2857 -1.375,-1.2857h-1.613v-4.6563h15.084c8.871,0 13.709,2.9267 13.709,9.844c0,6.7403 -5.123,9.7995 -14.041,9.7995h-2.751v6.9177h3.842v4.4789h-15.843zM89.9342,19.6836c3.985,0 5.028,-2.1285 5.028,-5.0992c0,-2.9268 -1.043,-5.0108 -5.028,-5.0108h-2.751v10.1105z" fill="black"/>
<path id="Vector_4" d="M107.0102,31.1681h1.612c0.664,0 1.376,-0.7983 1.376,-1.3301v-19.2891c0,-0.5319 -0.712,-1.2857 -1.376,-1.2857h-1.612v-4.6563h14.467c11.811,0 17.978,4.7893 17.978,15.3426c0,10.3764 -6.261,15.6975 -18.215,15.6975h-14.23zM121.2402,30.9467c5.976,0 8.917,-3.3256 8.917,-10.7753c0,-7.4051 -2.893,-10.5983 -8.917,-10.5983h-2.23v21.3731z" fill="black"/>
<path id="Vector_5" d="M142.4902,31.1681h1.613c0.664,0 1.375,-0.7983 1.375,-1.3301v-19.2891c0,-0.5319 -0.711,-1.2857 -1.375,-1.2857h-1.613v-4.6563h26.99v9.5781h-5.312l-0.807,-4.5674h-8.87v8.6913h4.316l0.38,-2.9268h4.886v10.7753h-4.886l-0.379,-3.0597h-4.317v8.0704h3.843v4.4789h-15.843z" fill="black"/>
</g>
<path id="Vector_6" d="M52.9765,17.8052v-14.6651l15.6877,14.6651z" fill="white"/>
</g></svg>