<svg viewBox="0 0 588 30.9985" fill="none" xmlns="http://www.w3.org/2000/svg" id="a354acbb" x="0" y="0"><g id="Compress PDF" data-node-id="1:7167"><path id="Line 82" data-node-id="1:7245" d="M5,15.5h578" stroke="#E3E3E3" stroke-width="10" stroke-linecap="round"/><path id="Line 83" data-node-id="1:7246" d="M5,15.5h178" stroke="#5A26EF" stroke-width="10" stroke-linecap="round"/><path id="Vector_37" data-node-id="1:7247" d="M198,15.51c-0.001,2.96 -0.882,5.86 -2.53,8.33c-1.649,2.46 -3.992,4.38 -6.732,5.52c-2.741,1.13 -5.757,1.43 -8.666,0.85c-2.909,-0.58 -5.581,-2.01 -7.679,-4.1c-2.097,-2.1 -3.526,-4.77 -4.105,-7.68c-0.578,-2.91 -0.282,-5.93 0.853,-8.67c1.134,-2.74 3.056,-5.08 5.522,-6.73c2.466,-1.65 5.365,-2.53 8.331,-2.53c3.977,0.01 7.787,1.6 10.599,4.41c2.812,2.81 4.396,6.62 4.407,10.6z" fill="#F56129"/></g><defs/></svg>