<svg viewBox="0 0 30.9985 30.9997" fill="none" xmlns="http://www.w3.org/2000/svg" id="7d939527" x="0" y="0"><g id="Compress PDF" data-node-id="1:7167"><path id="Vector_31" data-node-id="1:7230" d="M30.4985,15.506c0,2.966 -0.88,5.865 -2.53,8.331c-1.65,2.466 -3.99,4.388 -6.73,5.522c-2.74,1.135 -5.76,1.431 -8.67,0.852c-2.91,-0.578 -5.58,-2.007 -7.68,-4.104c-2.09,-2.098 -3.52,-4.77 -4.1,-7.679c-0.58,-2.909 -0.28,-5.925 0.85,-8.666c1.14,-2.74 3.06,-5.083 5.52,-6.732c2.47,-1.648 5.37,-2.529 8.33,-2.53c3.98,0.011 7.79,1.595 10.6,4.407c2.81,2.812 4.4,6.622 4.41,10.599z" fill="#F56129"/><path id="Vector_32" data-node-id="1:7231" d="M12.7285,21.5h-0.08c-0.15,-0.01 -0.29,-0.05 -0.42,-0.118c-0.14,-0.067 -0.25,-0.159 -0.34,-0.271l-4.18,-5.188c-0.17,-0.206 -0.24,-0.466 -0.2,-0.721c0.04,-0.256 0.19,-0.486 0.41,-0.641c0.22,-0.155 0.5,-0.221 0.77,-0.185c0.28,0.037 0.53,0.173 0.69,0.38l3.46,4.29l8.9,-8.285c0.2,-0.172 0.46,-0.265 0.73,-0.261c0.27,0.005 0.53,0.107 0.72,0.285c0.2,0.178 0.31,0.419 0.31,0.671c0,0.252 -0.1,0.495 -0.28,0.68l-9.76,9.079c-0.09,0.09 -0.21,0.162 -0.33,0.211c-0.13,0.049 -0.27,0.074 -0.4,0.074z" fill="white"/></g><defs/></svg>