<svg viewBox="0 0 1439.5 545.5544" fill="none" xmlns="http://www.w3.org/2000/svg" id="ed3b483a" x="0" y="0"><g id="Compress PDF" data-node-id="1:7167"><path id="Rectangle 161" data-node-id="1:7193" d="M1439,403.55v-402.55h-1438v402.55l720.497,74.448z" fill="url(#paint0_linear_1_7167)" stroke="white"/><path id="Rectangle 3" data-node-id="1:7194" d="M0.5,401.9l720.998,77.1l718.002,-77.1v-401.4h-1439z" fill="#5A26EF"/><g id="OBJECTS" data-node-id="1:7196" clip-path="url(#clip1_1_7167)">
<path id="Vector_7" data-node-id="1:7197" d="M1349.65,269.34l3.91,-35.5" stroke="#FF6D00" stroke-width="4" stroke-miterlimit="10"/>
<path id="Vector_8" data-node-id="1:7198" d="M1328.19,258.609l25.59,-24.665" stroke="#FF6D00" stroke-width="4" stroke-miterlimit="10"/>
<path id="Vector_9" data-node-id="1:7199" d="M1318.59,236.445l35.29,-2.272" stroke="#FF6D00" stroke-width="4" stroke-miterlimit="10"/>
<path id="Vector_10" data-node-id="1:7200" d="M1325.33,213.232l28.48,21.178" stroke="#FF6D00" stroke-width="4" stroke-miterlimit="10"/>
<path id="Vector_11" data-node-id="1:7201" d="M1345.26,199.827l8.34,34.715" stroke="#FF6D00" stroke-width="4" stroke-miterlimit="10"/>
<path id="Vector_12" data-node-id="1:7202" d="M1369.06,202.5l-15.69,32.014" stroke="#FF6D00" stroke-width="4" stroke-miterlimit="10"/>
<path id="Vector_13" data-node-id="1:7203" d="M1385.59,220.004l-32.39,14.336" stroke="#FF6D00" stroke-width="4" stroke-miterlimit="10"/>
<path id="Vector_14" data-node-id="1:7204" d="M1387.11,244.148l-33.92,-10.058" stroke="#FF6D00" stroke-width="4" stroke-miterlimit="10"/>
<path id="Vector_15" data-node-id="1:7205" d="M1372.92,263.631l-19.6,-29.735" stroke="#FF6D00" stroke-width="4" stroke-miterlimit="10"/>
</g><g id="OBJECTS_4" data-node-id="1:7220" clip-path="url(#clip4_1_7167)">
<path id="Vector_28" data-node-id="1:7221" d="M1331.44,517.336l-38.06,-33.836l-28.43,61.107z" fill="#FFA500"/>
<path id="Vector_29" data-node-id="1:7222" d="M1331.44,517.336l-34.23,-1.161l-3.83,-32.675z" fill="#EE6C4D"/>
<path id="Vector_30" data-node-id="1:7223" d="M1293.38,483.5l3.83,32.675l-32.26,28.432z" fill="#F69320"/>
</g></g><defs><linearGradient id="paint0_linear_1_7167" x1="720" y1="0.5" x2="720" y2="478.5" gradientUnits="userSpaceOnUse">
<stop stop-color="#A40ED4" stop-opacity="0"/>
<stop offset="1" stop-color="#55076E"/>
</linearGradient><clipPath id="clip1_1_7167">
<rect width="69" height="70" fill="white" transform="translate(1318.5, 199.5)"/>
</clipPath><clipPath id="clip4_1_7167">
<rect width="66.9742" height="50.1085" fill="white" transform="translate(1336.16, 509.59799999999996) rotate(121.388, 0, 0)"/>
</clipPath></defs></svg>