<svg viewBox="0 0 80.1816 98.9998" fill="none" xmlns="http://www.w3.org/2000/svg" x="0" y="0"><g id="Group_5">
<path id="Vector_38" d="M30.2688,55.4c-1.459,-1.06 -3.244,-1.56 -5.033,-1.4c-1.693,-0.02 -3.385,0.1 -5.056,0.38v17.62h3.697v-6.39c0.423,0.03 0.847,0.03 1.27,0c1.964,0.13 3.898,-0.54 5.367,-1.87c1.037,-1.15 1.581,-2.67 1.515,-4.23c0.035,-1.56 -0.607,-3.07 -1.76,-4.11zM25.7258,62.64c-0.201,0 -0.403,-0.01 -0.602,-0.04l0.112,-0.03c-0.415,0.05 -0.833,0.05 -1.248,0v-5.35c0.504,-0.12 1.02,-0.17 1.537,-0.16c1.871,0 2.918,0.99 2.918,2.61c0.061,1.58 -1.155,2.91 -2.717,2.97z" fill="black"/>
<path id="Vector_39" d="M57.9088,0h-49c-4.92,0 -8.909,4.03 -8.909,9v81c0,4.97 3.989,9 8.909,9h62.364c4.92,0 8.909,-4.03 8.909,-9v-65.25zM75.7278,90c0,2.49 -1.995,4.5 -4.455,4.5h-62.364c-2.46,0 -4.454,-2.01 -4.454,-4.5v-81c0,-2.49 1.994,-4.5 4.454,-4.5h40.091v22.5c0,2.49 1.995,4.5 4.455,4.5h22.273zM53.4548,27v-22.5h2.227l20.045,22.5z" fill="black"/>
<path id="Vector_40" d="M45.3478,56.05c-1.934,-1.48 -4.329,-2.21 -6.749,-2.05c-1.693,-0.01 -3.384,0.12 -5.056,0.38v17.62c1.403,0.19 2.817,0.28 4.232,0.27c2.725,0.2 5.43,-0.6 7.617,-2.25c1.904,-1.89 2.903,-4.53 2.74,-7.22c0.183,-2.57 -0.85,-5.08 -2.784,-6.75zM44.1898,62.8c-0.023,4.25 -2.228,6.25 -5.591,6.23v-0.02c-0.429,0.04 -0.862,0.04 -1.292,0v-11.72c0.557,-0.12 1.125,-0.18 1.693,-0.16c2.7,-0.19 5.042,1.86 5.231,4.59c0.025,0.36 0.011,0.72 -0.041,1.08z" fill="black"/>
<path id="Vector_41" d="M51.3608,72h3.742v-7.18h5.925v-3.28h-5.925v-4.08h6.348v-3.3h-10.09z" fill="black"/>
</g></svg>